<svg width="77" height="77" viewBox="0 0 77 77" fill="none" xmlns="http://www.w3.org/2000/svg">
<rect width="77" height="77" rx="38.5" fill="#6C8404"/>
<path d="M26.1902 27.6753C26.1902 27.6753 25.9439 27.887 25.8031 28.0282C19.82 34.0275 19.4329 43.45 24.6065 49.9081C29.8152 43.5206 30.3432 34.5922 26.1902 27.6753Z" fill="white"/>
<path d="M35.7632 43.6617L34.1442 45.2851C39.8809 43.944 46.0048 44.8263 51.1784 47.9671C52.2342 45.8144 53.0789 43.1324 53.7124 40.3092C47.7997 37.6977 40.62 38.7917 35.7632 43.6617Z" fill="white"/>
<path d="M31.751 42.8852L33.37 41.2619C38.2268 36.3919 39.3178 29.1927 36.7134 23.2639C33.8979 23.9344 31.2231 24.7461 29.0762 25.8048C32.2085 30.9925 33.1236 37.1329 31.751 42.8852Z" fill="white"/>
<path d="M41.1128 33.4628L53.5716 20.9701C50.5801 21.1465 45.3361 21.6053 40.0569 22.5581C41.4295 26.0519 41.7815 29.8279 41.0776 33.4628H41.1128Z" fill="white"/>
<path d="M27.1757 52.4137C33.6163 57.6013 43.0133 57.2131 48.9963 51.2138C49.1019 51.1079 49.2075 50.9668 49.3483 50.8256C42.4853 46.6614 33.5459 47.1907 27.1757 52.4137Z" fill="white"/>
<path d="M54.4162 36.9213C55.3665 31.6631 55.824 26.4048 56 23.3699L43.5411 35.8626C47.1662 35.1568 50.9672 35.5097 54.4162 36.886V36.9213Z" fill="white"/>
</svg>
